<svg width="617" height="617" viewBox="0 0 617 617" fill="none" xmlns="http://www.w3.org/2000/svg">
<path d="M192.802 31.6455C196.03 48.494 227.994 80.1058 237.856 85.5652C253.618 93.6663 290.161 103.264 305.483 118.146C310.824 122.843 318.75 137.224 313.232 142.977C306.129 146.323 264.449 131.648 252.239 119.907C248.599 116.971 233.688 120.964 229.813 128.008C227.114 132.939 225.647 159.708 219.893 158.123C214.2 156.406 190.131 139.397 182.148 146.558C177.216 151.901 190.101 175.734 187.811 180.313C183.35 187.093 140.762 182.66 138.56 188.59C133.687 199.773 166.532 223.108 160.016 233.028C151.915 242.744 122.504 245.033 116.046 259.621C110.177 272.066 131.428 279.463 141.642 280.52C142.699 270.776 150.095 265.844 161.953 265.492L162.481 244.593C164.154 235.611 169.966 231.473 175.69 230.857L192.156 230.945C195.766 231.033 197.703 228.919 197.88 225.397C198.848 205.761 205.452 194.578 218.044 192.993C223.592 192.112 229.139 200.213 233.454 200.037C254.675 199.069 256.084 198.717 269.468 183.483C276.513 176.879 286.111 178.288 289.457 183.219C293.596 190.439 299.936 197.66 304.162 199.597C309.622 201.974 327.203 205.819 333.044 205.849C347.133 205.761 353.679 215.359 353.209 223.166C353.167 228.93 351.05 242.029 350.039 241.968C350.039 241.968 358.603 244.065 365.889 246.825C374.464 250.072 382.091 254.337 382.091 254.337C382.091 254.337 389.752 258.61 398.998 267.135C410.565 277.799 424.24 293.2 424.24 293.2C424.24 293.2 424.835 295.796 424.358 298.717C423.84 301.891 422.244 305.409 422.244 305.409C422.244 305.409 435.747 302.097 445.491 291.967C453.398 283.748 457.937 268.31 457.937 268.31C455.089 269.865 440.604 276.337 439.621 272.066C439.621 272.066 441.544 267.968 442.439 264.023C443.305 260.193 442.615 255.982 442.615 255.982L426.881 264.436L420.131 259.444L424.71 247.001C419.471 248.534 411.502 251.682 409.506 249.935C394.683 241.423 385.789 227.951 394.595 209.107C403.224 206.729 426.295 214.83 428.937 216.68C433.956 218.617 433.956 228.567 434.748 232.353C437.566 233.322 447.19 222.916 447.956 222.844C449.237 222.852 452.389 225.971 453.182 226.982C454.985 229.34 453.689 243.408 454.825 245.24C455.353 248.115 467.191 235.376 467.094 234.673C472.26 228.333 475.077 232.736 476.428 237.667C476.75 238.683 476.832 248.85 476.839 249.172C493.647 244.007 512.237 206.289 496.431 187.445C496.431 187.445 481.241 190.395 481.241 190.351C481.241 190.307 465.567 189.294 465.567 189.294L435.042 175.968L430.874 171.625C431.578 168.381 432.723 163.362 432.151 159.363C431.886 158.167 431.094 156.693 429.861 156.253L413.879 146.676L396.268 128.888C391.953 125.19 367.972 119.585 348.336 120.994C342.232 112.276 327.497 97.1887 311.705 89.7339C290.279 77.0539 240.821 81.3087 192.802 31.6455ZM358.14 145.707C391.953 153.074 389.282 166.018 420.953 175.44C421.871 175.69 422.135 177.627 421.059 177.719C409.975 178.318 412.793 177.495 403.987 181.78C395.886 185.244 382.678 180.255 378.979 171.273C376.75 160.647 376.926 158.651 368.971 154.689C361.134 151.02 353.913 145.795 358.14 145.707ZM471.026 202.885C476.757 202.805 486.724 212.354 480.754 216.709C480.921 215.05 480.174 213.183 478.926 211.996L477.561 210.809C476.856 210.082 474.238 209.752 472.741 209.576C470.34 209.245 466.992 204.997 468.887 203.552C469.474 203.104 470.207 202.896 471.026 202.885Z" fill="#1C1390"/>
<path d="M221.244 272.066L236.271 293.024L337.975 384.601C337.975 384.601 384.557 430.918 396.18 477.059C406.231 519.59 378.217 554.9 378.217 554.9C378.217 554.9 354.618 590.474 295.797 585.896C235.215 580.26 211.616 548.912 211.616 548.912C211.616 548.912 192.42 527.779 191.892 489.915C194.533 432.855 233.101 418.472 233.101 418.472C233.101 418.472 227.959 433.657 232.983 439.842C238.256 446.33 253.412 443.716 253.412 443.716L246.192 452.286C246.192 452.286 242.435 456.336 242.083 459.39C241.849 462.5 244.255 465.436 244.255 465.436L250.831 475.18C250.831 475.18 255.277 479.724 254.997 482.519C254.881 484.808 249.186 487.156 249.186 487.156L236.037 492.675C236.037 492.675 229.697 494.142 229.813 501.891C230.342 508.817 236.271 508.229 236.271 508.289C236.271 508.407 260.693 506.059 260.693 506.059C260.693 506.059 267.047 504.973 269.556 506.412C271.45 507.967 271.788 513.22 271.788 513.22C272.198 521.879 274.487 530.641 277.349 535.704C277.349 535.704 285.216 546.921 291.981 546.741C302.431 545.684 303.81 535 303.81 535L308.037 511.225C308.037 511.225 308.7 506.454 309.592 505.355C310.879 504.02 314.553 504.797 314.553 504.797L345.372 508.935C345.372 508.935 350.446 509.381 353.209 506.88C355.993 504.362 356.467 498.897 356.467 498.897L356.115 489.035C356.115 489.035 356.555 486.627 352.799 483.693C349.334 480.816 344.579 480.757 344.579 480.757L301.667 478.41C301.667 478.41 294.439 477.922 292.393 474.77C290.149 471.316 293.067 465.172 293.067 465.172L310.414 428.541C310.414 428.541 312.395 424.138 309.225 420.792C305.791 417.534 301.08 419.295 301.08 419.295L250.624 435.849C250.624 435.849 242.152 438.267 239.353 435.585C236.89 433.223 240.058 425.723 240.058 425.723L255.996 388.916C255.996 388.916 259.342 382.312 257.317 379.714C255.468 377.645 248.247 380.727 248.247 380.727L220.157 391.469C220.157 391.469 212.47 394.514 208.974 392.35C206.049 390.54 207.213 383.456 207.213 383.456L212.32 348.498C212.32 348.498 213.409 343.791 211.498 341.982C209.776 340.288 205.276 341.572 205.276 341.572L175.571 351.198C171.375 352.549 167.745 354.84 168.175 350.494C169.231 320.086 194.063 277.174 221.244 272.066Z" fill="#1C1390"/>
<path d="M327.673 344.624C326.655 352.489 322.566 359.329 322.566 359.329L339.649 376.09C339.649 376.09 345.846 368.071 349.775 360.65C352.593 355.328 355.234 348.41 355.234 348.41C360.518 348.763 370.468 346.318 374.783 345.152C374.783 345.152 386.406 342.951 386.054 335.378C385.908 331.886 373.726 325.164 373.726 325.164L357.876 315.39C357.876 315.39 351.895 312.463 350.92 308.257C350.229 305.284 354.442 300.596 354.442 300.596L379.626 270.481C379.626 270.481 381.905 266.88 380.33 264.846C379.023 263.155 373.814 262.967 373.814 262.967L340.001 264.612C340.001 264.612 334.272 264.7 332.194 262.498C330.352 260.547 332.134 256.275 332.134 256.275L343.347 227.334C343.347 227.334 345.812 221.641 341.41 218.295C336.597 214.36 330.081 217.296 330.081 217.296L305.013 228.919C305.013 228.919 299.24 231.959 295.797 230.68C292.886 229.599 292.217 224.164 292.217 224.164L287.226 196.457C287.226 196.457 286.771 190.219 280.828 188.942C276.733 188.062 273.197 193.287 273.197 193.287L250.096 219.497C250.096 219.497 248.467 222.447 244.637 223.064C240.498 224.208 239.089 221.963 239.089 221.963L224.032 205.056C224.032 205.056 221.787 202.018 217.194 202.913C213.201 204.132 212.673 207.61 212.673 207.61L204.748 231.385C204.748 231.385 203.554 235.61 201.094 237.901C199.116 239.743 195.766 239.75 195.766 239.75C195.766 239.75 180.973 239.838 180.885 239.838C180.843 239.838 176.59 239.567 174.545 241.071C172.345 242.689 172.344 246.09 172.344 246.09L171.463 263.613C171.463 263.613 171.518 267.78 170.45 269.997C169.2 272.593 166.796 273.299 166.796 273.299L155.261 276.469C155.261 276.469 153.133 276.726 152.179 278.098C151.334 279.313 151.651 281.664 151.651 281.664L153.676 298.747C153.676 298.747 154.025 301.44 153.368 303.37C152.582 305.677 150.77 307.289 150.77 307.289L138.354 319.704C138.354 319.704 135.795 322.193 135.669 324.503C135.531 326.985 137.826 329.302 137.826 329.302C137.826 329.302 144.166 336.787 144.254 336.787C144.3 336.787 145.996 338.654 146.191 340.97C146.365 343.043 145.046 345.593 145.046 345.593C145.046 345.593 143.162 348.914 142.141 352.989C141.031 357.418 140.776 362.631 140.776 362.631C140.776 362.631 140.184 367.235 141.26 370.512C142.118 373.126 144.694 374.563 144.694 374.563L152.531 380.727L157.902 389.004L158.079 400.275C158.079 400.275 157.947 403.582 159.443 405.338C160.984 407.147 164.154 407.407 164.154 407.407L196.823 407.76C196.823 407.76 202.4 407.73 202.811 401.566C203.045 396.635 197.263 394.287 197.263 394.287L176.042 384.689C176.042 384.689 163.832 378.555 159.84 359.065C156.922 344.638 163.832 324.313 163.832 324.313C168.879 304.119 194.944 271.244 211.792 260.619C239.207 242.48 266.211 243.419 288.871 259.504C299.672 266.607 311.911 279.903 314.729 288.533L327.615 329.949C327.615 329.949 328.603 337.433 327.673 344.624Z" fill="#1C1390"/>
</svg>
